<?xml version="1.0" encoding="UTF-8" standalone="no"?>
<svg
   xmlns:dc="http://purl.org/dc/elements/1.1/"
   xmlns:cc="http://creativecommons.org/ns#"
   xmlns:rdf="http://www.w3.org/1999/02/22-rdf-syntax-ns#"
   xmlns:svg="http://www.w3.org/2000/svg"
   xmlns="http://www.w3.org/2000/svg"
   xmlns:sodipodi="http://sodipodi.sourceforge.net/DTD/sodipodi-0.dtd"
   xmlns:inkscape="http://www.inkscape.org/namespaces/inkscape"
   version="1.0"
   width="1000.562pt"
   height="1000.4018pt"
   viewBox="0 0 1000.562 1000.4018"
   preserveAspectRatio="xMidYMid meet"
   id="svg2"
   inkscape:version="0.91 r13725"
   sodipodi:docname="undraw_businesswoman_pc12.svg">
  <defs
     id="defs12" />
  <sodipodi:namedview
     pagecolor="#ffffff"
     bordercolor="#666666"
     borderopacity="1"
     objecttolerance="10"
     gridtolerance="10"
     guidetolerance="10"
     inkscape:pageopacity="0"
     inkscape:pageshadow="2"
     inkscape:window-width="1349"
     inkscape:window-height="679"
     id="namedview10"
     showgrid="false"
     fit-margin-top="0"
     fit-margin-left="0"
     fit-margin-right="0"
     fit-margin-bottom="0"
     width="1000.562pt"
     inkscape:zoom="0.417193"
     inkscape:cx="216.37162"
     inkscape:cy="658.73533"
     inkscape:window-x="0"
     inkscape:window-y="0"
     inkscape:window-maximized="0"
     inkscape:current-layer="svg2" />
  <metadata
     id="metadata4">
Created by potrace 1.15, written by Peter Selinger 2001-2017
<rdf:RDF>
  <cc:Work
     rdf:about="">
    <dc:format>image/svg+xml</dc:format>
    <dc:type
       rdf:resource="http://purl.org/dc/dcmitype/StillImage" />
    <dc:title />
  </cc:Work>
</rdf:RDF>
</metadata>
  <g
     transform="matrix(0.04854599,0,0,-0.03719725,289.35425,637.93442)"
     id="g6"
     style="fill:#3f51b5;stroke:none">
    <path
       d="m 2173,12510 c -92,-19 -182,-90 -264,-211 -67,-99 -89,-161 -105,-289 -7,-63 -14,-134 -14,-157 0,-23 -4,-45 -10,-48 -22,-14 -9,-117 32,-256 37,-125 46,-145 88,-193 73,-83 74,-91 55,-263 -17,-156 -33,-200 -87,-250 -31,-29 -163,-65 -253,-67 -38,-2 -79,-4 -89,-4 -11,-1 -55,-38 -98,-83 -89,-91 -156,-129 -278,-154 -197,-41 -328,-99 -380,-168 -74,-98 -183,-317 -218,-437 -89,-308 -234,-953 -262,-1163 -13,-101 -13,-479 0,-605 25,-234 87,-406 208,-577 59,-84 487,-534 563,-592 33,-26 75,-47 109,-55 l 55,-14 -3,-45 c -2,-24 -14,-85 -28,-134 -36,-137 -48,-284 -35,-445 6,-74 13,-241 16,-370 3,-129 10,-329 15,-445 5,-115 10,-382 10,-592 0,-313 4,-415 20,-573 20,-182 20,-197 5,-308 -22,-161 -29,-184 -91,-289 -33,-56 -58,-113 -64,-144 -36,-189 32,-903 107,-1131 15,-45 26,-58 73,-90 62,-41 79,-71 80,-140 0,-61 -24,-88 -78,-88 -47,0 -79,-30 -93,-87 -5,-21 -8,-124 -8,-230 1,-146 -2,-196 -12,-211 -8,-10 -93,-87 -190,-170 L 773,1282 731,1179 c -24,-56 -48,-126 -54,-156 l -12,-55 45,-39 c 25,-22 78,-56 118,-76 60,-30 86,-37 152,-41 158,-9 371,63 440,149 18,23 52,79 74,123 l 41,81 125,1 c 112,0 132,3 195,28 38,15 74,31 78,35 5,5 12,51 17,102 7,84 5,100 -17,164 -29,85 -24,117 37,250 72,155 87,269 45,351 -29,56 -45,163 -45,315 0,53 -7,134 -16,180 -13,65 -15,116 -10,224 6,156 50,621 66,704 20,105 13,185 -22,264 -46,102 -50,201 -14,324 31,105 101,402 197,833 130,582 158,680 240,840 l 43,85 23,-265 c 12,-146 41,-418 63,-605 22,-187 42,-374 46,-415 3,-41 17,-115 30,-165 36,-138 48,-313 40,-598 -4,-136 -12,-273 -17,-305 -37,-209 -41,-258 -50,-592 -22,-794 -22,-868 -1,-946 18,-66 19,-88 12,-315 -5,-146 -5,-250 1,-261 8,-15 60,-34 219,-79 45,-13 118,-53 177,-96 19,-15 40,-45 54,-81 30,-76 74,-139 112,-162 43,-27 147,-49 264,-56 107,-7 199,6 336,49 l 72,23 3,48 c 7,106 -11,147 -121,279 -55,67 -151,173 -212,237 -199,207 -207,220 -189,350 7,52 13,105 13,118 1,17 17,33 60,60 l 59,37 11,70 c 6,38 18,198 26,355 41,749 42,768 74,923 44,209 42,230 -19,341 -28,50 -67,114 -88,141 l -37,50 3,300 4,300 69,365 c 62,326 71,386 80,560 15,272 5,881 -15,980 -29,138 -14,298 37,390 17,30 32,57 33,59 2,2 16,-6 33,-18 16,-12 46,-28 66,-37 32,-13 36,-18 31,-42 -18,-93 -16,-180 4,-352 20,-158 21,-195 12,-288 -12,-118 -7,-131 51,-132 15,0 30,-6 32,-12 2,-7 9,-98 15,-202 12,-222 25,-317 90,-686 26,-151 54,-310 60,-354 6,-43 23,-108 36,-144 59,-155 69,-221 68,-442 -1,-240 -24,-469 -59,-590 -77,-265 -85,-513 -30,-894 42,-298 71,-553 85,-756 6,-85 16,-184 22,-219 15,-91 6,-176 -27,-240 -31,-62 -30,-116 3,-160 14,-20 21,-51 26,-131 15,-220 60,-506 116,-743 36,-149 114,-207 313,-232 72,-9 172,22 216,68 37,37 50,77 58,177 8,102 -10,175 -67,284 -62,118 -97,217 -116,328 -8,49 -24,103 -34,121 -38,64 -49,116 -54,249 -3,88 -11,156 -24,201 -11,38 -18,85 -16,105 2,21 8,91 14,157 13,143 95,722 115,816 30,137 46,281 55,499 12,284 33,413 104,624 88,260 91,284 88,686 -2,309 5,482 25,635 l 6,50 14,-33 c 22,-55 27,-178 13,-394 -14,-227 -12,-242 66,-508 19,-63 37,-148 40,-190 6,-76 2,-111 -35,-322 -37,-210 -44,-402 -27,-676 26,-394 15,-805 -21,-877 -9,-16 -56,-72 -105,-123 -125,-129 -136,-163 -94,-274 13,-35 27,-94 31,-133 4,-38 13,-84 20,-101 12,-28 9,-52 -21,-200 -35,-175 -42,-301 -25,-409 7,-42 16,-55 57,-92 80,-69 145,-96 244,-101 77,-3 88,-2 120,20 47,32 60,61 60,138 0,71 22,132 59,164 27,24 28,88 3,138 -11,20 -25,78 -31,130 -7,51 -22,135 -32,187 -34,167 -22,309 32,377 41,51 45,76 25,158 -21,92 -20,108 10,191 130,355 211,668 259,995 4,25 16,71 26,102 10,32 19,77 19,101 0,24 6,66 14,93 10,35 16,127 19,314 4,225 11,319 45,620 22,195 43,406 46,468 4,61 15,163 26,225 38,226 166,614 249,757 32,56 39,90 34,168 -5,69 -2,92 18,149 34,100 32,202 -5,273 -40,77 -34,123 32,223 28,42 58,98 68,123 l 18,46 -29,52 c -16,28 -36,63 -44,77 -14,25 -13,29 12,68 16,23 45,50 70,62 56,29 183,154 206,205 10,22 32,56 48,75 17,18 54,81 83,139 29,58 77,144 106,192 100,165 172,303 209,403 20,55 66,152 101,217 71,128 98,198 119,303 14,70 14,70 -13,110 -171,253 -706,823 -803,854 -22,7 -53,32 -82,65 -25,29 -58,58 -74,65 -21,8 -33,25 -45,59 -24,67 -69,116 -147,162 -91,53 -181,127 -181,149 0,24 -23,43 -96,79 -66,33 -84,59 -84,121 0,43 -21,66 -87,100 -52,26 -69,51 -77,114 -3,27 -12,63 -20,80 -8,18 -20,51 -26,75 -19,72 -49,133 -120,242 -99,153 -138,229 -161,311 -39,141 -89,240 -238,464 -212,320 -304,405 -471,435 -87,16 -176,5 -247,-30 -32,-15 -82,-35 -112,-45 -76,-23 -135,-67 -188,-139 -47,-62 -153,-272 -153,-301 0,-9 -11,-50 -25,-91 -14,-41 -25,-96 -25,-123 0,-27 -9,-111 -21,-188 -27,-177 -22,-280 16,-325 29,-34 32,-46 40,-153 3,-44 8,-102 11,-130 9,-85 -25,-126 -134,-166 -23,-8 -48,-33 -84,-85 -28,-40 -58,-76 -66,-79 -8,-3 -142,58 -306,141 -360,181 -371,187 -387,226 -12,29 -10,37 34,122 25,50 65,116 88,146 104,138 137,259 149,530 5,102 13,250 19,330 12,161 7,199 -43,284 -33,56 -144,158 -201,185 -72,34 -210,70 -363,97 -79,13 -147,24 -150,23 -4,-1 -26,-5 -49,-9 z M 5720,9335 c 19,-10 61,-38 95,-64 33,-25 94,-61 135,-79 104,-46 102,-45 254,-161 75,-56 164,-134 199,-171 56,-61 64,-75 75,-132 12,-62 12,-65 -23,-163 -20,-55 -50,-125 -67,-156 -23,-44 -30,-71 -31,-119 l -2,-61 -67,-62 c -56,-52 -68,-69 -74,-104 -5,-34 -12,-44 -36,-54 -31,-13 -55,-51 -82,-135 -21,-65 -76,-130 -117,-139 -39,-9 -62,12 -171,153 -84,107 -127,141 -208,162 -38,10 -63,30 -169,138 -149,153 -183,218 -157,299 5,16 1,29 -13,45 -28,29 -26,60 4,96 29,35 31,58 9,90 -13,18 -14,29 -5,54 6,17 11,62 11,100 0,51 7,84 25,128 14,33 25,66 25,74 0,8 14,57 30,109 34,105 59,136 130,161 59,21 181,16 230,-9 z M 3430,8679 c 0,-7 16,-45 36,-86 l 35,-74 -22,-64 c -12,-36 -24,-65 -26,-65 -2,0 -3,37 -2,82 2,77 0,83 -25,104 -23,20 -25,28 -20,68 4,25 11,46 15,46 5,0 9,-5 9,-11 z"
       id="path8"
       inkscape:connector-curvature="0" />
  </g>
</svg>
